<?xml version="1.0" encoding="utf-8"?>
<!-- Generator: Adobe Illustrator 27.5.0, SVG Export Plug-In . SVG Version: 6.00 Build 0)  -->
<svg version="1.1" id="Layer_1" xmlns="http://www.w3.org/2000/svg" xmlns:xlink="http://www.w3.org/1999/xlink" x="0px" y="0px"
	 viewBox="0 0 180 180" style="enable-background:new 0 0 180 180;" xml:space="preserve">
<style type="text/css">
	.st0{clip-path:url(#SVGID_00000011031925161684382000000000694067339403829163_);}
	.st1{fill:none;}
</style>
<g>
	<g>
		<defs>
			<rect id="SVGID_1_" width="180" height="180"/>
		</defs>
		<clipPath id="SVGID_00000113312091120450913270000006636351497711874986_">
			<use xlink:href="#SVGID_1_"  style="overflow:visible;"/>
		</clipPath>
		<g style="clip-path:url(#SVGID_00000113312091120450913270000006636351497711874986_);">
			<path class="st1" d="M37,0h106c20.4,0,37,16.6,37,37v106c0,20.4-16.6,37-37,37H37c-20.4,0-37-16.6-37-37V37C0,16.6,16.6,0,37,0z"
				/>
			<path d="M110.8,34.8H69.2C52.6,34.8,39,48.3,39,65v50c0,16.7,13.6,30.2,30.2,30.2h41.6c16.7,0,30.2-13.6,30.2-30.2V65
				C141,48.3,127.4,34.8,110.8,34.8z M73.6,126.8H62.4V117h11.2V126.8z M117.6,126.8H82.9V117h23.6V72.3c0-8-7.4-14.5-16.5-14.5
				s-16.5,6.5-16.5,14.5v35.9H62.4V72.3C62.4,58.9,74.8,48,90,48s27.6,10.9,27.6,24.3V126.8z"/>
		</g>
	</g>
</g>
</svg>
